# xmcd
#
# Track frame offsets:
#	150
#	16612
#	39070
#	63188
#	88925
#	103364
#	121545
#	139683
#	151211
#	165690
#	185368
#
# Disc length: 2681 seconds
# Revision: 0
# Processed by: cddbd v1.5.2PL0 Copyright (c) Steve Scherf et al.
# Submitted via: dBpowerAMP V12.0
#
DISCID=7c0a770b
DTITLE=Petey Hop - The Levee
DYEAR=2012
DGENRE=Blues
TTITLE0=Out All Night
TTITLE1=My God
TTITLE2=Why Should I Complain
TTITLE3=The Levee
TTITLE4=Little Johnny 
TTITLE5=Walk w/ The Blues
TTITLE6=Westside
TTITLE7=Long Tall Walkin'
TTITLE8=Porter
TTITLE9=Collision
TTITLE10=Sweet Little Girl
EXTD=
EXTT0=
EXTT1=
EXTT2=
EXTT3=
EXTT4=
EXTT5=
EXTT6=
EXTT7=
EXTT8=
EXTT9=
EXTT10=
PLAYORDER=
